<?xml version="1.0" encoding="UTF-8"?>
<svg version="1.1" xmlns="http://www.w3.org/2000/svg" width="1080" height="1080">
<path d="M0 0 C356.4 0 712.8 0 1080 0 C1080 356.4 1080 712.8 1080 1080 C723.6 1080 367.2 1080 0 1080 C0 723.6 0 367.2 0 0 Z " fill="#FEFEFE" transform="translate(0,0)"/>
<path d="M0 0 C2.15267145 -0.00960264 4.30434307 -0.04063747 6.45678711 -0.07226562 C19.47491004 -0.1732753 32.20225885 1.37168745 44.31420898 6.42773438 C45.05823975 6.7296167 45.80227051 7.03149902 46.56884766 7.3425293 C59.45189633 12.69525833 70.49949144 19.37489624 81.25170898 28.24023438 C82.2997168 29.07554687 82.2997168 29.07554687 83.36889648 29.92773438 C105.5242142 48.04586086 118.582219 77.35752826 122.25170898 105.24023438 C124.53750042 136.60347696 117.06784778 168.51997209 96.32592773 192.88867188 C95.64143555 193.6646875 94.95694336 194.44070313 94.25170898 195.24023438 C93.5156543 196.119375 92.77959961 196.99851562 92.02124023 197.90429688 C73.27411893 219.6179284 45.64411897 233.73541969 17.25170898 237.24023438 C12.95501908 237.49775844 8.68010708 237.52763577 4.37670898 237.49023438 C3.23411621 237.4827417 2.09152344 237.47524902 0.91430664 237.4675293 C-31.29877499 237.05689395 -59.88602079 223.9905471 -82.65454102 201.40039062 C-102.91074926 180.58434628 -116.02147918 150.86293961 -115.99829102 121.67773438 C-115.95081509 118.53026768 -115.85359814 115.38619753 -115.74829102 112.24023438 C-115.72895508 111.03496094 -115.70961914 109.8296875 -115.68969727 108.58789062 C-114.70695274 83.06631308 -102.90912704 59.47633629 -86.74829102 40.24023438 C-86.15661133 39.50160156 -85.56493164 38.76296875 -84.95532227 38.00195312 C-64.39344002 13.31892604 -31.49261219 0.08449667 0 0 Z " fill="#020202" transform="translate(329.748291015625,421.759765625)"/>
<path d="M0 0 C3.57262789 1.39948875 6.87315011 2.95236719 10.21875 4.8359375 C11.22333252 5.39982178 12.22791504 5.96370605 13.26293945 6.54467773 C14.86528442 7.45068726 14.86528442 7.45068726 16.5 8.375 C17.60625732 8.99769775 18.71251465 9.62039551 19.85229492 10.26196289 C27.01717109 14.30025436 34.16949683 18.3606529 41.3125 22.4375 C42.17504395 22.92959961 43.03758789 23.42169922 43.92626953 23.92871094 C47.54413914 25.99868191 51.15290679 28.07839451 54.72265625 30.23046875 C62.29926654 34.78394581 68.84257217 38.27699911 78 37 C93.20116349 33.03694062 107.81023392 21.97270069 121.20605469 14.13476562 C127.24560798 10.60179249 133.29042775 7.07999114 139.375 3.625 C140.35557373 3.06220337 140.35557373 3.06220337 141.35595703 2.48803711 C145.76512152 0 145.76512152 0 148 0 C148.09288589 9.77092155 148.16385908 19.54173718 148.20724869 29.31301117 C148.22807889 33.85076042 148.25631246 38.38820647 148.30175781 42.92578125 C148.34537935 47.30893412 148.36917143 51.69179627 148.37950897 56.07514954 C148.38687119 57.74323601 148.40124781 59.41130748 148.42292023 61.07926941 C148.64728857 79.07092977 148.64728857 79.07092977 142.58770752 85.4979248 C138.14745916 89.5069241 133.84956938 91.2444506 127.9281311 91.26742554 C126.4310688 91.28022049 126.4310688 91.28022049 124.90376282 91.29327393 C123.81999863 91.29236755 122.73623444 91.29146118 121.61962891 91.29052734 C120.46946793 91.29724457 119.31930695 91.30396179 118.1342926 91.31088257 C114.33167197 91.32988245 110.52922764 91.33378774 106.7265625 91.3359375 C104.08246793 91.34236375 101.43837407 91.34909198 98.79428101 91.35610962 C93.25118869 91.36888975 87.70814413 91.37187559 82.16503906 91.37060547 C75.76826578 91.36940428 69.37183002 91.39050483 62.97514212 91.4220928 C56.80976534 91.45144792 50.64454992 91.45858021 44.4791069 91.45738602 C41.86125688 91.4597457 39.24340434 91.46858977 36.62559891 91.48405075 C32.96316807 91.50365681 29.30160511 91.49789288 25.63916016 91.48583984 C24.55944443 91.49707886 23.4797287 91.50831787 22.36729431 91.51989746 C15.17702724 91.45979971 10.76441486 90.36816066 5.29296875 85.47265625 C0.88698557 79.85230314 -0.30029487 75.51155474 -0.22705078 68.45581055 C-0.22734283 67.71380905 -0.22763489 66.97180756 -0.22793579 66.20732117 C-0.22654803 63.76699933 -0.21101313 61.32698692 -0.1953125 58.88671875 C-0.1915804 57.18992784 -0.18873436 55.49313478 -0.18673706 53.79634094 C-0.17911613 49.33948778 -0.1594809 44.88276583 -0.1373291 40.42596436 C-0.11683747 35.87448908 -0.10772825 31.32299252 -0.09765625 26.77148438 C-0.07623352 17.84759873 -0.04211619 8.9238103 0 0 Z " fill="#FEFEFE" transform="translate(259,508)"/>
<path d="M0 0 C1.16820786 -0.00686325 2.33641571 -0.0137265 3.5400238 -0.02079773 C7.39741205 -0.03908196 11.25439417 -0.03522541 15.11181641 -0.02954102 C17.11805653 -0.03294906 19.12429686 -0.036365 21.13053477 -0.04089409 C27.43651445 -0.05492448 33.74235862 -0.05339113 40.04833984 -0.04199219 C46.53885529 -0.03051842 53.02895717 -0.04457713 59.51941812 -0.07138866 C65.10521001 -0.09359325 70.69087253 -0.10017221 76.27670538 -0.09431225 C79.60703704 -0.09095198 82.93689265 -0.09501723 86.26722336 -0.11056328 C89.98444966 -0.12546947 93.70077044 -0.11479694 97.41796875 -0.09765625 C98.51121964 -0.10732422 99.60447052 -0.11699219 100.73085022 -0.12695312 C107.10356294 -0.06553825 112.04594238 0.67393997 117.33837891 4.40405273 C121.26263334 8.53484688 123.33837891 11.6828003 123.33837891 17.40405273 C122.30003906 17.97567139 122.30003906 17.97567139 121.24072266 18.55883789 C108.67645793 25.48449567 96.15045571 32.45545412 83.77587891 39.71655273 C81.81365151 40.86110487 79.85141219 42.00563658 77.88916016 43.15014648 C74.30795474 45.24161011 70.74599119 47.36134126 67.19384766 49.50170898 C65.61752173 50.42833621 64.04072814 51.35416851 62.46337891 52.27905273 C61.78073975 52.70226807 61.09810059 53.1254834 60.39477539 53.56152344 C55.10160902 56.61900208 50.39660736 57.40470006 44.33837891 56.40405273 C41.09755601 55.28778458 38.23652425 53.74407223 35.27587891 52.02905273 C34.04345459 51.34794434 34.04345459 51.34794434 32.78613281 50.65307617 C30.28810235 49.26202361 27.81069356 47.84023959 25.33837891 46.40405273 C24.63825684 45.99832031 23.93813477 45.59258789 23.21679688 45.17456055 C20.53495597 43.61281714 17.86002109 42.04036354 15.19580078 40.44873047 C7.5790797 35.90494415 -0.17633672 31.61141135 -7.93359375 27.31323242 C-13.61368753 24.15532031 -19.18708382 20.90696794 -24.66162109 17.40405273 C-24.43694052 11.89937858 -23.11687648 9.12601852 -19.52490234 4.98217773 C-13.44624612 -0.16620196 -7.59546353 -0.03116023 0 0 Z " fill="#FDFDFD" transform="translate(283.66162109375,481.595947265625)"/>
</svg>
